<svg xmlns="http://www.w3.org/2000/svg" viewBox="0 0 512 512">
  <defs>
    <linearGradient id="bgGrad" x1="0%" y1="0%" x2="100%" y2="100%">
      <stop offset="0%" style="stop-color:#f97316"/>
      <stop offset="100%" style="stop-color:#ea580c"/>
    </linearGradient>
  </defs>
  <!-- Background -->
  <rect width="512" height="512" rx="80" fill="url(#bgGrad)"/>
  <!-- Gas Flame Icon -->
  <g transform="translate(100, 60)">
    <!-- Flame Shape -->
    <path d="M156 350c-60 0-110-50-110-115 0-80 110-200 110-200s110 120 110 200c0 65-50 115-110 115z" 
          fill="#ffffff" opacity="0.95"/>
    <path d="M156 320c-35 0-65-30-65-70 0-50 65-120 65-120s65 70 65 120c0 40-30 70-65 70z" 
          fill="#fcd34d"/>
    <path d="M156 290c-20 0-35-18-35-40 0-30 35-70 35-70s35 40 35 70c0 22-15 40-35 40z" 
          fill="#f97316"/>
  </g>
  <!-- Text "GÁS" -->
  <text x="256" y="460" 
        font-family="Arial, sans-serif" 
        font-size="80" 
        font-weight="bold" 
        fill="#ffffff" 
        text-anchor="middle">GÁS</text>
</svg>
